# xmcd
# 
# Track frame offsets:
#     150
#     10544
#     26233
#     37247
#     51307
#     64034
#     77164
#     89140
#     106360
#     117661
#     131889
#     149809
#     160987
#     171382
#     184147
#     197374
#     211651
#     229058
#     240448
# 
# Disc length: 3418
# 
# Revision: 4
# Processed by: cddbd v1.5.2PL0 Copyright (c) Steve Scherf et al.
# Submitted via: fre:ac v1.0.27
# 
DISCID=190d5813
DTITLE=Dusty Springfield - Dusty In Memphis
DYEAR=2002
DGENRE=Rock
TTITLE0=Just A Little Lovin'
TTITLE1=So Much Love
TTITLE2=Son Of A Preacher Man
TTITLE3=I Don't Want To Hear It Anymore
TTITLE4=Don't Forget About Me
TTITLE5=Breakfast In Bed
TTITLE6=Just One Smile
TTITLE7=The Windmills Of Your Mind
TTITLE8=In The Land Of Make Believe
TTITLE9=No Easy Way Down
TTITLE10=I Can't Make It Alone
TTITLE11=Son Of A Preacher Man [mono]
TTITLE12=Just A Little Lovin' [mono]
TTITLE13=Don't Forget About Me [mono]
TTITLE14=Breakfast In Bed [mono]
TTITLE15=I Don't Want To Hear It Anymore [mono]
TTITLE16=The Windmills Of Your Mind [mono]
TTITLE17=In The Land Of Make Believe [mono]
TTITLE18=So Much Love [mono]
EXTD=UK Bonus Tracks (2002)
EXTT0=
EXTT1=
EXTT2=
EXTT3=
EXTT4=
EXTT5=
EXTT6=
EXTT7=
EXTT8=
EXTT9=
EXTT10=
EXTT11=
EXTT12=
EXTT13=
EXTT14=
EXTT15=
EXTT16=
EXTT17=
EXTT18=
PLAYORDER=
